<?xml version="1.0" encoding="iso-8859-1"?>
<!-- Generator: Adobe Illustrator 16.0.0, SVG Export Plug-In . SVG Version: 6.00 Build 0)  -->
<!DOCTYPE svg PUBLIC "-//W3C//DTD SVG 1.1//EN" "http://www.w3.org/Graphics/SVG/1.1/DTD/svg11.dtd">
<svg xmlns="http://www.w3.org/2000/svg" xmlns:xlink="http://www.w3.org/1999/xlink" version="1.1" id="Capa_1" x="0px" y="0px" width="44px" height="auto" viewBox="0 0 269.99 269.99" style="enable-background:new 0 0 269.99 269.99;" xml:space="preserve">
<g>
	<path d="M262.562,101.041c2.2-3.8,0.301-9.3-4.199-10.3c-20.9-4.8-42.5-5.6-64.301-5.3c-9.3-26.2-19-52.4-33-75.5   c-21-34.7-47,28.9-62.4,76.2c-1.4-0.1-2.8-0.2-4.2-0.3c-22.7-2.4-82.3-13.4-87.8,21.2c-1.6,10.4,9.8,17.2,17.2,21.7   c11.6,7.1,23.6,13.701,35.5,20.401c0,8.1,0.1,16.199,0.4,24.3c-3,26.6-12,53-10.3,80.1c0.1,1.4,0.6,2.601,1.3,3.601   c0.1,2.6,0.3,5.199,0.8,7.899c0.7,4.5,6.5,6.101,10.1,4.101c30.7-17.601,57-41,83.9-63.7c29.9,23.1,61.601,46.3,97.601,48.1   c3.2,0.2,6.7-2.399,7.399-5.6c6.7-34.4-15.899-68-31.6-99.3C235.863,134.941,251.763,119.941,262.562,101.041z" fill="#FFDA44"/>
</g>
<g>
</g>
<g>
</g>
<g>
</g>
<g>
</g>
<g>
</g>
<g>
</g>
<g>
</g>
<g>
</g>
<g>
</g>
<g>
</g>
<g>
</g>
<g>
</g>
<g>
</g>
<g>
</g>
<g>
</g>
</svg>
